<?xml version="1.0" encoding="UTF-8" standalone="no"?>
<!-- Created with Inkscape (http://www.inkscape.org/) -->

<svg
   width="62.167538mm"
   height="60.572498mm"
   viewBox="0 0 62.167538 60.572498"
   version="1.1"
   id="svg1"
   xml:space="preserve"
   xmlns="http://www.w3.org/2000/svg"
   xmlns:svg="http://www.w3.org/2000/svg"><defs
     id="defs1" /><g
     id="layer1"
     transform="translate(-230.00774,-163.68043)"><g
       id="g2"
       transform="translate(137.49205,-18.863237)"><path
         id="path1307-6-4-9"
         style="color:#000000;fill:#ffffff;stroke-width:0.590381;stroke-linejoin:round;-inkscape-stroke:none;paint-order:stroke fill markers"
         d="m 97.464876,182.54796 c -1.69685,-0.0838 -3.20661,1.06944 -3.57239,2.72852 -0.0926,0.42014 -1.91681,10.38823 -1.2175,15.49053 0.39208,2.86072 1.23435,5.729 2.95537,8.22844 1.41226,2.05105 3.50049,3.74762 6.069924,4.81159 -2.778875,6.83088 -4.38296,14.41649 -0.38706,21.08037 0.58294,0.86669 1.27515,1.68691 2.09135,2.43809 3.3157,3.05159 8.22637,4.92821 15.08693,5.77019 1.16164,0.12639 2.30918,-0.33814 3.05563,-1.23713 0.0569,0.007 0.11413,0.0129 0.17105,0.0202 0.005,-0.006 0.011,-0.0107 0.0155,-0.017 0.6168,0.0777 1.2348,0.15375 1.86552,0.15968 0.6309,-0.006 1.24907,-0.0819 1.86604,-0.15968 0.005,0.006 0.0109,0.0107 0.0155,0.017 0.0569,-0.007 0.11418,-0.0128 0.17105,-0.0202 0.74645,0.89899 1.89398,1.36352 3.05562,1.23713 6.86056,-0.84198 11.77124,-2.7186 15.08694,-5.77019 0.81723,-0.75214 1.51002,-1.57328 2.09341,-2.44119 4.09907,-6.65103 2.25801,-14.25353 -0.38912,-21.07727 2.56943,-1.06397 4.65765,-2.76054 6.06991,-4.81159 1.72102,-2.49944 2.5633,-5.36772 2.95538,-8.22844 0.69933,-5.10251 -1.12488,-15.07039 -1.2175,-15.49053 -0.36578,-1.65908 -1.87554,-2.81234 -3.57239,-2.72852 -8.26537,0.4103 -14.18891,3.3064 -17.23719,7.95094 -0.15955,0.2532 -0.31671,0.50783 -0.45941,0.77101 l -0.004,-0.002 c -0.0453,0.08 -0.0969,0.15629 -0.14056,0.2372 -2.97218,-1.27711 -5.75427,-1.9916 -8.29407,-2.06086 -2.53967,0.0693 -5.32209,0.78383 -8.29407,2.06086 -0.0437,-0.0809 -0.0953,-0.15722 -0.14056,-0.2372 -0.001,5.1e-4 -0.002,0.001 -0.004,0.002 -0.14276,-0.26331 -0.29977,-0.51821 -0.4594,-0.77153 -3.04835,-4.64432 -8.97152,-7.54013 -17.236674,-7.95042 z" /><path
         id="path868-8-8-9-9-8-8"
         style="fill:#004d1f;fill-opacity:1;stroke:none;stroke-width:0.512407;stroke-linecap:butt;stroke-linejoin:miter;stroke-miterlimit:4;stroke-dasharray:none;stroke-opacity:1"
         d="m 97.225036,185.80647 c -1.71858,7.79582 -3.43105,22.40551 7.179294,25.27331 l 1.41443,-3.50023 c -7.035524,0.61169 -6.956274,-12.54347 -6.200084,-18.54418 5.992444,0.56659 14.739634,4.5478 9.409834,16.84774 -5.32978,12.29996 -15.760424,30.59776 9.95381,33.75359 -1.68355,-0.60985 -3.18756,-1.76401 -4.46093,-3.61124 -14.726244,-4.18631 -8.2071,-14.9222 -3.26241,-26.69493 4.94468,-11.77275 3.02134,-22.67741 -14.033944,-23.52406 z m 52.748904,0.21664 c -17.05526,0.84665 -18.97862,11.75141 -14.03394,23.5241 4.9446,11.77276 11.46384,22.51041 -3.2624,26.69669 -1.27337,1.84726 -2.77739,2.99966 -4.46093,3.60947 25.71422,-3.15582 15.28359,-21.45186 9.9538,-33.75181 -5.32979,-12.29994 3.41739,-16.28286 9.40975,-16.84945 0.75627,6.00071 0.83561,19.15585 -6.19999,18.54409 l 1.41443,3.50201 c 10.61033,-2.86783 8.89778,-17.47919 7.17928,-25.2751 z m -26.55873,6.88424 c -3.07929,-0.0424 -5.65074,0.882 -8.09891,2.04341 0.33487,1.2379 0.45968,2.47561 0.38438,3.71341 4.95233,-3.11823 10.09981,-3.25108 15.46248,-0.0776 0.15347,-1.14093 0.0207,-2.06558 0.53875,-3.48089 -3.18873,-1.54689 -5.89163,-2.16534 -8.2867,-2.19844 z m -6.37907,17.50656 c -1.29925,2e-5 -2.86931,1.25742 -3.14129,2.4063 1.79505,-0.10942 1.78759,0.46623 3.08693,0.79447 1.26007,0.31839 2.21644,-0.52044 2.21644,-1.53256 0,-1.01216 -0.86274,-1.66821 -2.16208,-1.66821 z m 12.85293,0.0352 c -1.29934,0 -2.16209,0.65781 -2.16209,1.66997 0,1.01213 0.95638,1.8492 2.21645,1.53082 1.29934,-0.32824 1.29188,-0.90214 3.08692,-0.79271 -0.27197,-1.14889 -1.84203,-2.40805 -3.14128,-2.40808 z m -6.29658,11.68101 a 10.063006,8.2057565 0 0 0 -10.06261,8.20543 10.063006,8.2057565 0 0 0 10.06261,8.20542 10.063006,8.2057565 0 0 0 10.0644,-8.20542 10.063006,8.2057565 0 0 0 -10.0644,-8.20543 z m -0.0548,2.51553 a 6.9625127,5.6774955 0 0 1 6.96346,5.67757 6.9625127,5.6774955 0 0 1 -6.96346,5.67756 6.9625127,5.6774955 0 0 1 -6.96166,-5.67756 6.9625127,5.6774955 0 0 1 6.96166,-5.67757 z m -2.6604,4.07453 a 1.2885043,1.2958572 0 0 0 -1.25298,1.29652 1.2885043,1.2958572 0 0 0 1.28811,1.29476 1.2885043,1.2958572 0 0 0 1.2881,-1.29476 1.2885043,1.2958572 0 0 0 -1.2881,-1.29652 1.2885043,1.2958572 0 0 0 -0.0351,0 z m 5.05763,0.0194 a 1.2885043,1.2958572 0 0 0 -1.25298,1.29652 1.2885043,1.2958572 0 0 0 1.28811,1.29475 1.2885043,1.2958572 0 0 0 1.28811,-1.29475 1.2885043,1.2958572 0 0 0 -1.28811,-1.29652 1.2885043,1.2958572 0 0 0 -0.0351,0 z" /></g></g></svg>
