<?xml version="1.0" encoding="UTF-8" standalone="no"?>
<!-- Created with Inkscape (http://www.inkscape.org/) -->

<svg
   width="150mm"
   height="61.117462mm"
   viewBox="0 0 150 61.117462"
   version="1.1"
   id="svg1"
   xml:space="preserve"
   xmlns="http://www.w3.org/2000/svg"
   xmlns:svg="http://www.w3.org/2000/svg"><defs
     id="defs1" /><g
     id="layer1"
     transform="translate(-179.89278,-36.489647)"><g
       id="g1447-5-1-8"
       transform="matrix(0.59038072,0,0,0.59038072,46.705989,-55.28741)"><path
         style="color:#000000;fill:#ffffff;stroke-linejoin:round;-inkscape-stroke:none;paint-order:stroke fill markers"
         d="m 344.88944,155.45402 c -2.75039,0 -5.45427,0.48242 -7.94922,1.51367 -2.41111,0.98831 -4.61245,2.46018 -6.4121,4.33398 -0.008,0.008 -0.0156,0.0169 -0.0234,0.0254 -0.49738,0.52404 -0.88125,1.13992 -1.3125,1.71875 -0.15561,-0.77096 -0.25133,-1.80007 -0.40821,-2.51172 -0.61956,-2.81018 -3.17661,-4.76305 -6.05078,-4.62109 -14.98675,0.74396 -25.4318,6.30974 -30.21875,15.17187 -5.16563,-2.21962 -10.00089,-3.45688 -14.39257,-3.51757 h -0.002 c -5.41031,-0.0745 -9.92675,1.40845 -13.94726,3.11914 -4.79483,-8.84341 -15.23252,-14.39561 -30.20117,-15.13867 -2.8743,-0.14312 -5.43224,1.80897 -6.05274,4.61914 -1.53355,6.95649 -3.16221,16.91439 -1.83398,26.60546 0.66411,4.84554 2.09077,9.70389 5.00586,13.9375 2.39212,3.47411 5.9291,6.34822 10.28125,8.1504 -2.65297,6.66167 -4.82067,13.71318 -4.88672,20.92382 -0.0612,6.67952 2.15723,13.74326 7.77344,18.91211 5.6162,5.16886 13.9341,8.34728 25.55468,9.77344 1.9676,0.21409 3.91142,-0.57297 5.17578,-2.0957 1.10676,0.14243 2.21525,0.28314 3.34961,0.2832 1.11286,1.4e-4 2.20065,-0.14038 3.28711,-0.27734 1.20204,1.68676 3.20076,2.6194 5.26563,2.45703 11.62051,-1.42615 19.9365,-4.60298 25.55273,-9.77149 5.61623,-5.1685 7.83463,-12.2329 7.77344,-18.91211 1.29554,-3.62366 3.40961,1.52799 6.21875,6.08204 10.79145,12.88316 21.56078,19.57093 32.58008,21.80273 11.01929,2.2318 21.65375,0.13347 32.58593,-2.6543 21.86437,-5.57553 45.51388,-14.27004 80.74805,-5.21289 4.31779,1.06215 8.21346,-2.85379 7.12891,-7.16601 -0.12668,-2.11545 -1.37854,-4.00032 -3.2793,-4.9375 -7.93967,-3.52665 -15.26073,-5.9197 -22.3125,-7.85157 0.60468,-0.60035 1.10426,-1.25247 1.4082,-1.89843 0.34802,-0.73214 0.5651,-1.46385 0.66602,-2.125 0.003,-0.0202 0.007,-0.0403 0.01,-0.0605 0.0842,-0.59207 0.10157,-1.08581 0.10157,-1.57226 0,-0.48741 -0.0182,-0.9825 -0.10157,-1.57032 v -0.002 c -0.0929,-0.6536 -0.34438,-1.50894 -0.88281,-2.48242 -0.4201,-0.76991 -1.08162,-1.55937 -1.97851,-2.20117 -1.15897,-0.80742 -2.59123,-1.25586 -3.69336,-1.25586 h -4.16797 v -18.51172 c 0,-0.95059 -0.31258,-2.09026 -0.85547,-3.09571 0.22196,-0.0811 0.44433,-0.10193 0.66602,-0.19922 0.0157,-0.007 0.0313,-0.0143 0.0469,-0.0215 0.41371,-0.18574 0.79177,-0.4768 1.18945,-0.71875 1.31575,1.0078 2.45577,1.27447 3.28321,1.36915 0.66561,0.0964 1.24742,0.1289 1.83007,0.1289 0.54022,0 1.03863,-0.0124 1.64063,-0.082 0.58015,-0.0645 1.19885,-0.0995 2.33008,-0.60547 0.0809,-0.0366 0.16103,-0.075 0.24023,-0.11523 0.6327,-0.31812 1.42116,-0.78327 2.21875,-1.7461 0.0928,-0.11256 0.18142,-0.22852 0.26563,-0.34765 0.44234,-0.62292 0.75543,-1.28254 0.96289,-1.9082 l 0.92969,-2.74219 h 3.25781 l 1.02539,2.92383 c 0.0515,0.14674 0.10889,0.29138 0.17187,0.43359 0.15746,0.35642 0.34693,0.74255 0.65235,1.20312 0.11596,0.17451 0.24114,0.34272 0.375,0.50391 0.77492,0.93496 1.67826,1.49922 2.43554,1.83789 0.22922,0.10215 0.46472,0.18957 0.70508,0.26172 0.86676,0.26154 1.38715,0.28793 1.89453,0.31641 0.51581,0.0459 0.99097,0.0664 1.5,0.0664 0.57339,0 1.08307,-0.0119 1.70118,-0.0801 0.90437,-0.0952 2.20353,-0.18548 3.84375,-1.62891 1.51413,-1.33223 2.15827,-3.6542 2.10546,-5.12305 -0.0435,-1.103 -0.24687,-1.89401 -0.47656,-2.52929 l -9.41015,-26.21094 c -10e-4,-0.004 -0.003,-0.008 -0.004,-0.0117 -0.27758,-0.76768 -0.78757,-1.63726 -1.51758,-2.41211 -0.9427,-1.00082 -2.05643,-1.59226 -2.95703,-1.87109 h -0.002 c -0.88457,-0.27353 -1.52778,-0.32503 -2.13282,-0.35547 -0.50085,-0.0401 -0.98104,-0.0606 -1.49609,-0.0606 -0.49886,0 -0.97173,0.0204 -1.46875,0.0625 -0.60134,0.0345 -1.25273,0.10524 -2.05469,0.35351 -0.0431,0.0138 -0.0861,0.0281 -0.1289,0.043 -0.82361,0.27615 -1.82141,0.7675 -2.72071,1.67188 -0.10646,0.10736 -0.20875,0.21877 -0.30664,0.33398 -0.66218,0.77725 -1.03405,1.54923 -1.27343,2.21094 -0.001,0.005 -0.003,0.009 -0.004,0.0137 l -1.82813,5.0918 v -3.20703 c 0,-1.38954 -0.59751,-2.80777 -1.31054,-3.77539 -0.8914,-1.20061 -1.91271,-1.8149 -2.68555,-2.13672 -0.98743,-0.42386 -1.62959,-0.51264 -2.18359,-0.57813 -0.56107,-0.0663 -1.06659,-0.084 -1.58203,-0.084 -0.52318,0 -1.02808,0.016 -1.60352,0.084 -0.0143,0.002 -0.0287,0.004 -0.043,0.006 -0.56064,0.0704 -1.18514,0.17117 -2.03125,0.51172 -0.8405,0.3384 -2.04658,0.96834 -3.01562,2.42969 -0.18264,0.27556 -0.29855,0.62738 -0.44141,0.95312 -0.13347,-0.29253 -0.2345,-0.61504 -0.40039,-0.86523 v -0.002 c -0.75088,-1.13233 -1.68865,-1.75739 -2.48047,-2.15625 -1.0363,-0.5424 -1.86235,-0.72361 -2.52344,-0.80664 -0.56604,-0.0711 -1.06508,-0.0898 -1.56054,-0.0898 -0.51757,0 -1.01172,0.0131 -1.62305,0.0898 -0.0169,0.002 -0.0339,0.004 -0.0508,0.006 -0.66339,0.089 -1.44042,0.2814 -2.30664,0.69922 -0.81488,0.38406 -1.83664,1.03654 -2.64649,2.25781 -0.52597,0.79312 -0.8417,1.84112 -0.96289,2.86523 l -0.26758,-0.48632 v -0.002 c -0.3011,-0.55211 -0.63329,-1.07378 -1.01171,-1.60351 -0.46857,-0.69696 -1.12063,-1.41729 -1.99219,-2.06445 -0.86372,-0.6555 -1.8547,-1.15133 -2.81641,-1.39649 -0.9673,-0.2499 -1.75584,-0.29883 -2.50195,-0.29883 h -1.7793 c -1.66537,0 -3.45054,0.6713 -4.66015,1.61133 -2.08834,1.62294 -2.75586,4.24496 -2.75586,5.90039 v 4.45117 l -2.65039,-7.38281 c -0.001,-0.004 -0.003,-0.008 -0.004,-0.0117 -0.28166,-0.77895 -0.79528,-1.6467 -1.52149,-2.41601 -0.93644,-0.99194 -2.05113,-1.58793 -2.95312,-1.86719 h -0.002 c -0.88457,-0.27352 -1.52778,-0.32503 -2.13282,-0.35547 -0.50126,-0.0401 -0.98104,-0.0606 -1.49609,-0.0606 -0.49886,0 -0.97218,0.0205 -1.46875,0.0625 -0.60133,0.0345 -1.2526,0.10518 -2.05469,0.35352 -0.0431,0.0138 -0.0861,0.0281 -0.1289,0.043 -0.82364,0.27614 -1.82141,0.7675 -2.72071,1.67187 -0.10646,0.10736 -0.20875,0.21877 -0.30664,0.33398 -0.65478,0.76857 -1.03028,1.53881 -1.27343,2.21094 -0.002,0.005 -0.004,0.009 -0.006,0.0137 l -2.54493,7.08789 c -0.11374,-0.98644 -0.15119,-1.9792 -0.49414,-2.9375 -0.52128,-1.50814 -1.35129,-2.94874 -2.42968,-4.14453 -1.1071,-1.2276 -2.46008,-2.19322 -3.89063,-2.89062 -1.41386,-0.69594 -2.90825,-1.14451 -4.44336,-1.41211 -0.11019,-0.0194 -0.22091,-0.0357 -0.33203,-0.0488 -0.44893,-0.0521 -0.91978,-0.0889 -1.40625,-0.1211 -0.008,-7.1e-4 -0.0159,7.1e-4 -0.0234,0 -0.73804,-0.0686 -1.4697,-0.0918 -2.28906,-0.0918 h -5.96289 c -1.69662,0 -3.39088,0.69276 -4.52148,1.55274 -0.55163,0.41913 -1.00208,0.89367 -1.36329,1.39453 -0.29718,-0.1952 -0.66534,-0.53491 -0.96093,-0.70313 -0.9623,-0.58693 -1.92984,-1.00539 -2.93555,-1.3457 -1.04374,-0.37306 -2.12244,-0.66303 -3.26367,-0.89258 -1.3635,-0.27426 -2.75992,-0.39843 -4.17774,-0.39843 z m 10.04102,6.11718 c 0.0402,0.0136 0.17608,0.0153 0.20898,0.0293 -0.006,0.0284 -0.008,0.0538 -0.0137,0.082 -0.0631,-0.0399 -0.13205,-0.0726 -0.19531,-0.11133 z m 23.09961,1.99805 0.0293,0.043 c -0.005,-0.008 -0.0143,-0.0114 -0.0195,-0.0195 -0.005,-0.007 -0.005,-0.0161 -0.01,-0.0234 z"
         id="path1307-6-4-9-2" /><g
         id="g477-2-5-4"
         transform="translate(100.56015,57.295903)"><path
           id="path868-8-8-9-9-8-8-5"
           style="fill:#004d1f;fill-opacity:1;stroke:none;stroke-width:0.867926;stroke-linecap:butt;stroke-linejoin:miter;stroke-miterlimit:4;stroke-dasharray:none;stroke-opacity:1"
           d="m 133.08667,104.14626 c -2.91097,13.20473 -5.8116,37.95094 12.16043,42.80849 l 2.3958,-5.92877 c -11.91692,1.03609 -11.78268,-21.24641 -10.50184,-31.41054 10.15013,0.9597 24.96631,7.70316 15.93859,28.53707 -9.02771,20.83395 -26.69536,51.82717 16.85997,57.17259 -2.85162,-1.03298 -5.39916,-2.98792 -7.55602,-6.1168 -24.94363,-7.09087 -13.90136,-25.27555 -5.52594,-45.21647 8.37542,-19.94095 5.11761,-38.41151 -23.77099,-39.84557 z m 89.34726,0.36695 c -28.88859,1.43406 -32.14642,19.90479 -23.771,39.84563 8.37527,19.94097 19.4177,38.12864 -5.52593,45.21946 -2.15686,3.12892 -4.7044,5.08088 -7.55602,6.11379 43.55532,-5.34539 25.88768,-36.33563 16.85996,-57.16957 -9.02771,-20.83391 5.78846,-27.58026 15.93844,-28.53997 1.281,10.16414 1.41539,32.44661 -10.50168,31.41039 l 2.3958,5.93179 c 17.97202,-4.8576 15.07126,-29.60664 12.16043,-42.81152 z m -44.98578,11.66068 c -5.21576,-0.0718 -9.57134,1.49394 -13.71811,3.46116 0.56721,2.09678 0.77861,4.19325 0.65107,6.28987 8.38837,-5.28173 17.10728,-5.50676 26.1907,-0.13139 0.25995,-1.93254 0.035,-3.49874 0.91254,-5.89602 -5.40114,-2.62016 -9.97937,-3.6677 -14.0362,-3.72377 z m -10.80501,29.65299 c -2.20069,4e-5 -4.86009,2.12985 -5.32078,4.07585 3.04049,-0.18534 3.02786,0.78971 5.22871,1.34569 2.13434,0.5393 3.75426,-0.88153 3.75426,-2.59588 0,-1.71442 -1.46134,-2.82566 -3.66219,-2.82566 z m 21.77058,0.0597 c -2.20084,0 -3.66219,1.11421 -3.66219,2.82863 0,1.71436 1.61994,3.13221 3.75427,2.59293 2.20085,-0.55597 2.18821,-1.52806 5.2287,-1.34271 -0.46068,-1.94601 -3.12008,-4.0788 -5.32078,-4.07885 z m -10.66529,19.78555 a 17.044944,13.899093 0 0 0 -17.04427,13.89854 17.044944,13.899093 0 0 0 17.04427,13.89852 17.044944,13.899093 0 0 0 17.04731,-13.89852 17.044944,13.899093 0 0 0 -17.04731,-13.89854 z m -0.0928,4.26086 a 11.793259,9.6166682 0 0 1 11.79487,9.6168 11.793259,9.6166682 0 0 1 -11.79487,9.61677 11.793259,9.6166682 0 0 1 -11.79182,-9.61677 11.793259,9.6166682 0 0 1 11.79182,-9.6168 z m -4.50625,6.90153 a 2.1824973,2.1949518 0 0 0 -2.12231,2.19608 2.1824973,2.1949518 0 0 0 2.18182,2.19309 2.1824973,2.1949518 0 0 0 2.18182,-2.19309 2.1824973,2.1949518 0 0 0 -2.18182,-2.19608 2.1824973,2.1949518 0 0 0 -0.0594,0 z m 8.56673,0.0328 a 2.1824973,2.1949518 0 0 0 -2.12232,2.19608 2.1824973,2.1949518 0 0 0 2.18183,2.19308 2.1824973,2.1949518 0 0 0 2.18182,-2.19308 2.1824973,2.1949518 0 0 0 -2.18182,-2.19608 2.1824973,2.1949518 0 0 0 -0.0594,0 z" /><g
           id="g463-3-1-5"><g
             id="g447-6-9-1"
             transform="matrix(1.1349629,0,0,1.1349629,-31.088866,-14.044281)"><text
               xml:space="preserve"
               style="font-style:normal;font-variant:normal;font-weight:normal;font-stretch:normal;font-size:39.2505px;line-height:1.25;font-family:Calibri;-inkscape-font-specification:'Calibri, Normal';font-variant-ligatures:normal;font-variant-caps:normal;font-variant-numeric:normal;font-variant-east-asian:normal;fill:#004d1f;fill-opacity:1;stroke:none;stroke-width:0.793747;stroke-miterlimit:4;stroke-dasharray:none;stroke-opacity:1"
               x="229.26355"
               y="128.90955"
               id="text968-0-1-8-9-9-9-7"
               transform="scale(0.99715889,1.0028492)"><tspan
                 id="tspan966-6-6-6-9-8-5-1"
                 x="229.26355"
                 y="128.90955"
                 style="font-style:normal;font-variant:normal;font-weight:normal;font-stretch:normal;font-size:39.2505px;font-family:Calibri;-inkscape-font-specification:'Calibri, Normal';font-variant-ligatures:normal;font-variant-caps:normal;font-variant-numeric:normal;font-variant-east-asian:normal;fill:#004d1f;fill-opacity:1;stroke:none;stroke-width:0.793747;stroke-miterlimit:4;stroke-dasharray:none;stroke-opacity:1">GRANJA</tspan><tspan
                 x="229.26355"
                 y="177.97267"
                 style="font-style:normal;font-variant:normal;font-weight:normal;font-stretch:normal;font-size:39.2505px;font-family:Calibri;-inkscape-font-specification:'Calibri, Normal';font-variant-ligatures:normal;font-variant-caps:normal;font-variant-numeric:normal;font-variant-east-asian:normal;fill:#004d1f;fill-opacity:1;stroke:none;stroke-width:0.793747;stroke-miterlimit:4;stroke-dasharray:none;stroke-opacity:1"
                 id="tspan858-6-2-8-3-1-3-1" /></text><text
               xml:space="preserve"
               style="font-style:normal;font-variant:normal;font-weight:normal;font-stretch:normal;font-size:39.251px;line-height:1.25;font-family:'Market Fresh All Caps';-inkscape-font-specification:'Market Fresh All Caps, Normal';font-variant-ligatures:normal;font-variant-caps:normal;font-variant-numeric:normal;font-variant-east-asian:normal;fill:#004d1f;fill-opacity:1;stroke:none;stroke-width:0.793747;stroke-miterlimit:4;stroke-dasharray:none;stroke-opacity:1"
               x="228.47862"
               y="160.73584"
               id="text968-1-23-2-2-2-84-6-5"
               transform="scale(0.99715889,1.0028492)"><tspan
                 id="tspan966-7-4-1-1-8-69-1-2"
                 x="228.47862"
                 y="160.73584"
                 style="font-style:normal;font-variant:normal;font-weight:normal;font-stretch:normal;font-size:39.251px;font-family:Calibri;-inkscape-font-specification:'Calibri, Normal';font-variant-ligatures:normal;font-variant-caps:normal;font-variant-numeric:normal;font-variant-east-asian:normal;fill:#004d1f;fill-opacity:1;stroke:none;stroke-width:0.793747;stroke-miterlimit:4;stroke-dasharray:none;stroke-opacity:1">BICKEL</tspan><tspan
                 x="228.47862"
                 y="211.26485"
                 style="font-style:normal;font-variant:normal;font-weight:normal;font-stretch:normal;font-size:39.251px;font-family:'Market Fresh All Caps';-inkscape-font-specification:'Market Fresh All Caps, Normal';font-variant-ligatures:normal;font-variant-caps:normal;font-variant-numeric:normal;font-variant-east-asian:normal;fill:#004d1f;fill-opacity:1;stroke:none;stroke-width:0.793747;stroke-miterlimit:4;stroke-dasharray:none;stroke-opacity:1"
                 id="tspan858-3-4-2-8-7-17-4-7" /></text></g><g
             id="g451-75-6-6"
             transform="matrix(1.0021972,0,0,1.0021972,-0.40936855,10.754629)"><path
               style="fill:#d2060e;fill-opacity:1;stroke:none;stroke-width:0.793747;stroke-linecap:butt;stroke-linejoin:miter;stroke-miterlimit:4;stroke-dasharray:none;stroke-opacity:1"
               d="m 230.25474,163.16881 c 47.12163,19.27343 75.05455,-18.12201 142.54908,11.85771 -75.68245,-22.8822 -99.85172,25.02029 -142.54908,-11.85771 z"
               id="path899-45-7-3-8-7-0-1" /><path
               style="fill:#004d1f;fill-opacity:1;stroke:none;stroke-width:0.793747;stroke-linecap:butt;stroke-linejoin:miter;stroke-miterlimit:4;stroke-dasharray:none;stroke-opacity:1"
               d="M 230.26858,164.04168 C 272.3463,202.8767 299.60924,153.52924 372.8165,176.02702 299.44837,157.16732 271.06183,212.7419 230.26858,164.04168 Z"
               id="path899-4-6-2-7-4-0-2-4" /></g></g></g></g></g></svg>
