<?xml version="1.0" encoding="UTF-8" standalone="no"?>
<!-- Created with Inkscape (http://www.inkscape.org/) -->

<svg
   width="6.6145668mm"
   height="6.6145754mm"
   viewBox="0 0 6.6145668 6.6145754"
   version="1.1"
   id="svg1"
   xml:space="preserve"
   xmlns="http://www.w3.org/2000/svg"
   xmlns:svg="http://www.w3.org/2000/svg"><defs
     id="defs1" /><g
     id="layer1"
     transform="translate(-144.61131,-112.54766)"><path
       id="path20"
       style="fill:#ffffff;fill-opacity:1;stroke-width:0.400883"
       d="m 147.91862,112.54765 a 3.3072895,3.3072895 0 0 0 -3.30729,3.30729 3.3072895,3.3072895 0 0 0 3.30729,3.30729 3.3072895,3.3072895 0 0 0 3.30728,-3.30729 3.3072895,3.3072895 0 0 0 -3.30728,-3.30729 z m -1.87328,1.75184 h 3.74655 c 0.1644,0 0.29714,0.13307 0.29714,0.29842 v 2.51535 c 0,0.1644 -0.13179,0.29714 -0.29714,0.29714 h -3.74655 c -0.16447,0 -0.29714,-0.1318 -0.29714,-0.29714 v -2.51535 c 0,-0.16514 0.13179,-0.29842 0.29714,-0.29842 z m 3.40484,0.33266 6.3e-4,0.0233 c -0.0225,0 -0.0385,0.001 -0.0549,0.0161 l -1.44565,1.33003 -1.44759,-1.32809 c -0.048,-0.0312 -0.13738,-0.0319 -0.16601,6.5e-4 -0.0305,0.048 -0.0305,0.13739 0.001,0.16601 l 1.52768,1.40108 c 0.0134,0 0.0136,4e-5 0.0149,0.001 0,0 4e-5,6.9e-4 0.001,10e-4 0.0134,0 0.013,4e-5 0.0143,0.001 0,5.7e-4 5e-5,8.9e-4 10e-4,0.001 0.0134,0 0.0136,6.6e-4 0.0149,10e-4 0,3.5e-4 3e-5,8.1e-4 0.001,0.001 0.0134,7.7e-4 0.013,0.001 0.0143,6.5e-4 h 6.5e-4 c 0.0134,0 0.0136,-5e-5 0.0149,-10e-4 0,-3.1e-4 4e-5,-2.8e-4 10e-4,-6.4e-4 0.0134,0 0.013,-5e-5 0.0143,-0.001 0,-6.5e-4 4e-5,-8.5e-4 10e-4,-10e-4 0.001,-0.0134 0.0155,-0.0136 0.0168,-0.0149 3.6e-4,-2e-4 8e-4,-1.4e-4 0.001,-6.4e-4 l 1.52575,-1.40301 c 0.0299,-0.045 0.0299,-0.13352 0.001,-0.16602 -0.0131,-0.0274 -0.0385,-0.0271 -0.0549,-0.0284 z m -0.998,1.3171 c -0.0232,0 -0.0402,0.0125 -0.0549,0.0284 -0.0312,0.0493 -0.0312,0.13868 0.001,0.1673 l 0.93276,0.85525 c 0.0493,0.0312 0.13674,0.0312 0.16537,-0.001 0.0305,-0.0493 0.0305,-0.13674 -0.001,-0.16536 l -0.93276,-0.8546 c -0.0131,-0.0151 -0.0385,-0.0174 -0.0549,-0.0161 z m -1.20084,0.009 c -0.0225,0 -0.0385,10e-4 -0.0549,0.0161 l -0.91274,0.8785 c -0.0299,0.0465 -0.0299,0.13286 -0.001,0.16536 0.0405,0.0299 0.13287,0.0299 0.16537,0.001 l 0.91209,-0.87591 c 0.0299,-0.0465 0.0299,-0.13351 0.001,-0.16601 -0.0131,-0.0151 -0.0385,-0.0154 -0.0549,-0.0161 z" /></g></svg>
