<?xml version="1.0" encoding="UTF-8" standalone="no"?>
<!-- Created with Inkscape (http://www.inkscape.org/) -->

<svg
   width="6.614583mm"
   height="6.6145673mm"
   viewBox="0 0 6.614583 6.6145673"
   version="1.1"
   id="svg1"
   xml:space="preserve"
   xmlns="http://www.w3.org/2000/svg"
   xmlns:svg="http://www.w3.org/2000/svg"><defs
     id="defs1" /><g
     id="layer1"
     transform="translate(-151.62269,-111.61406)"><path
       id="path21"
       style="fill:#ffffff;fill-opacity:1;stroke-width:0.653291"
       d="m 154.92999,111.61405 a 3.3072896,3.3072896 0 0 0 -3.30728,3.30728 3.3072896,3.3072896 0 0 0 3.30728,3.30729 3.3072896,3.3072896 0 0 0 3.3073,-3.30729 3.3072896,3.3072896 0 0 0 -3.3073,-3.30728 z m 8.4e-4,1.30547 c 0.0735,6e-5 0.14685,0.005 0.1912,0.0148 0.34609,0.0779 0.62554,0.31338 0.74285,0.62657 0.0573,0.15325 0.0636,0.20166 0.064,0.49029 l 6.4e-4,0.26031 0.10212,0.006 c 0.0562,0.002 0.12213,0.01 0.14664,0.0162 0.14734,0.0347 0.27889,0.15255 0.33847,0.30295 l 0.0259,0.0652 0.003,0.89659 c 0.002,0.65619 4e-4,0.91086 -0.008,0.94826 -0.0355,0.16764 -0.172,0.31308 -0.33784,0.35979 -0.04,0.0113 -0.21165,0.0138 -1.06066,0.0162 -0.55719,8.4e-4 -1.11368,-1.8e-4 -1.23636,-0.004 v -6.5e-4 c -0.12275,-0.004 -0.23629,-0.0113 -0.25192,-0.0162 -0.16742,-0.0579 -0.29393,-0.19778 -0.32815,-0.36303 -0.007,-0.0338 -0.01,-0.32752 -0.01,-0.93018 0,-0.82895 8.4e-4,-0.8839 0.0173,-0.94245 0.0228,-0.0823 0.0682,-0.15552 0.13436,-0.21704 0.098,-0.091 0.18604,-0.12388 0.3514,-0.13113 l 0.11688,-0.005 -6.4e-4,-0.24287 c -6.1e-4,-0.19328 0.002,-0.25953 0.0149,-0.32685 0.0778,-0.41018 0.37732,-0.71653 0.79259,-0.81003 0.044,-0.01 0.11775,-0.0143 0.19121,-0.0143 z m 0.0113,0.39661 c -0.2986,-0.009 -0.56323,0.2131 -0.6059,0.52 -0.005,0.0397 -0.01,0.15443 -0.01,0.25515 0,0.15072 0.002,0.18712 0.0148,0.20412 l 0.0142,0.0207 h 0.58007 0.58007 l 0.01,-0.02 c 0.0173,-0.0323 0.007,-0.46283 -0.0136,-0.53292 -0.0678,-0.23956 -0.26342,-0.40906 -0.50967,-0.44183 -0.0201,-0.002 -0.0401,-0.005 -0.0601,-0.005 z m -0.0272,1.6052 c -0.0648,8.4e-4 -0.12908,0.018 -0.18668,0.0517 -0.12388,0.0725 -0.21762,0.25609 -0.20413,0.40049 0.007,0.0802 0.0323,0.12923 0.0995,0.20155 0.0604,0.0648 0.0885,0.116 0.0975,0.17698 0.002,0.0203 0.007,0.12063 0.009,0.22285 0.002,0.1278 0.006,0.19737 0.0162,0.22287 0.016,0.0458 0.0684,0.10013 0.11112,0.11438 0.0441,0.0148 0.12664,0.009 0.16924,-0.0112 0.0902,-0.0434 0.1085,-0.11125 0.1085,-0.4018 v -0.21575 l 0.0562,-0.0537 c 0.107,-0.10188 0.14417,-0.19006 0.1376,-0.3275 -0.005,-0.10313 -0.0407,-0.18345 -0.113,-0.25579 -0.0832,-0.0832 -0.19239,-0.12606 -0.30036,-0.12462 z" /></g></svg>
