<?xml version="1.0" encoding="UTF-8" standalone="no"?>
<!-- Created with Inkscape (http://www.inkscape.org/) -->

<svg
   width="4.0742617mm"
   height="5.291667mm"
   viewBox="0 0 4.0742616 5.291667"
   version="1.1"
   id="svg1"
   xml:space="preserve"
   xmlns="http://www.w3.org/2000/svg"
   xmlns:svg="http://www.w3.org/2000/svg"><defs
     id="defs1" /><g
     id="layer1"
     transform="matrix(0.15119048,0,0,0.15119048,-3.6172034,-2.2691117)"><path
       style="fill:#f2f2f2;stroke-width:0.373218"
       d="m 27.111175,49.869385 c -0.78803,-0.171424 -1.339412,-0.460164 -1.925375,-1.008266 -0.569502,-0.532703 -0.900978,-1.071986 -1.118208,-1.81923 -0.143291,-0.492908 -0.157672,-1.3681 -0.133005,-8.096041 l 0.02766,-7.54339 0.317664,-0.649132 c 0.578775,-1.182709 1.753421,-2.053819 3.057449,-2.267386 0.828395,-0.135671 19.38308,-0.125657 20.121568,0.01086 1.707167,0.315586 2.991123,1.595672 3.304056,3.294098 0.143411,0.778365 0.147521,13.874414 0.0046,14.755022 -0.277813,1.712093 -1.670404,3.088665 -3.413363,3.3741 -0.346885,0.0568 -4.424393,0.09225 -10.110466,0.08792 -7.536561,-0.0057 -9.65532,-0.03471 -10.132605,-0.138555 z m 10.932667,-5.508288 c 0.600168,-0.400938 0.680823,-0.702828 0.680995,-2.548939 l 1.55e-4,-1.637495 0.384126,-0.30869 c 0.54809,-0.440457 0.899591,-1.194352 0.899591,-1.929425 0,-0.910889 -0.168859,-1.328931 -0.786119,-1.946191 -0.61726,-0.617263 -1.0353,-0.786122 -1.946194,-0.786122 -1.510386,0 -2.71234,1.335359 -2.574109,2.859808 0.06477,0.714177 0.332512,1.236485 0.903835,1.763112 l 0.45269,0.41727 3.66e-4,1.701359 c 3.36e-4,1.531662 0.02024,1.733931 0.199439,2.027878 0.365621,0.599688 1.197315,0.780185 1.785225,0.387435 z M 27.961516,25.635541 c 0,-5.60607 2.534677,-9.29193 7.185133,-10.448422 1.04191,-0.259106 3.465934,-0.23205 4.603047,0.05139 3.748606,0.934354 6.117072,3.713893 6.873669,8.066662 0.05664,0.325867 0.131551,1.314577 0.166463,2.197132 l 0.06347,1.604648 h -2.024841 -2.024838 l -0.05716,-1.456526 c -0.08898,-2.26721 -0.445243,-3.596581 -1.284448,-4.792954 -0.864216,-1.23202 -2.203812,-1.838489 -4.070109,-1.842632 -2.677476,-0.0059 -4.308513,1.259428 -5.089868,3.948768 -0.168666,0.580528 -0.22488,1.097391 -0.265372,2.43995 l -0.05139,1.703394 h -2.011888 -2.011883 z"
       id="path8" /></g></svg>
