<?xml version="1.0" encoding="UTF-8" standalone="no"?>
<!-- Created with Inkscape (http://www.inkscape.org/) -->

<svg
   width="88.864334mm"
   height="93.414513mm"
   viewBox="0 0 88.864334 93.414513"
   version="1.1"
   id="svg1"
   xml:space="preserve"
   inkscape:export-filename="..\Desktop\logo_agro_bickel.png"
   inkscape:export-xdpi="96"
   inkscape:export-ydpi="96"
   inkscape:version="1.4 (86a8ad7, 2024-10-11)"
   sodipodi:docname="placas.svg"
   xmlns:inkscape="http://www.inkscape.org/namespaces/inkscape"
   xmlns:sodipodi="http://sodipodi.sourceforge.net/DTD/sodipodi-0.dtd"
   xmlns="http://www.w3.org/2000/svg"
   xmlns:svg="http://www.w3.org/2000/svg"><sodipodi:namedview
     id="namedview1"
     pagecolor="#ffffff"
     bordercolor="#000000"
     borderopacity="0.25"
     inkscape:showpageshadow="2"
     inkscape:pageopacity="0.0"
     inkscape:pagecheckerboard="0"
     inkscape:deskcolor="#d1d1d1"
     inkscape:document-units="mm"
     inkscape:export-bgcolor="#ffffff00"
     inkscape:zoom="2.5247522"
     inkscape:cx="549.95495"
     inkscape:cy="540.44907"
     inkscape:window-width="1366"
     inkscape:window-height="697"
     inkscape:window-x="-8"
     inkscape:window-y="-8"
     inkscape:window-maximized="1"
     inkscape:current-layer="layer1"><inkscape:page
       x="0"
       y="0"
       width="88.864334"
       height="93.414513"
       id="page2"
       margin="0"
       bleed="0" /></sodipodi:namedview><defs
     id="defs1" /><g
     inkscape:label="Camada 1"
     inkscape:groupmode="layer"
     id="layer1"
     transform="translate(74.260186,99.543613)"><g
       id="g3"><path
         style="fill:#ffaec9;fill-opacity:1;stroke:none"
         d="m -42.427842,-13.366853 c 8.88778,3.353029 17.773352,1.205119 26.722922,0 0.68392,5.0747388 6.1398296,9.9267488 10.8232196,5.5064388 1.79576,-1.69489 2.60681,-4.2160988 4.30395998,-6.0249898 1.78325002,-1.90067 4.44285002,-2.6857 6.21792002,-4.55733 3.53088,-3.72297 6.2639674,-9.94512 7.8870674,-14.76787 1.40447,-4.17314 1.07207,-8.14319 0.96442,-12.435415 -0.21792,-8.68889 -2.82501,-17.97274 -6.9949174,-25.66458 -1.44666,-2.66851 -3.12388,-5.28766 -5.00116,-7.67292 -0.92252,-1.17215 -2.57978002,-2.52677 -3.02984002,-3.96875 -0.39725,-1.27277 0.60142,-3.25761 0.92808,-4.49792 0.79812002,-3.03038 2.00308002,-7.57865 0.57796,-10.5719 -0.9276,-1.94827 -3.07196998,-1.69437 -4.77045998,-1.05241 -3.70947,1.402031 -6.9387396,3.89509 -10.5833396,5.38741 -1.98464,0.81264 -6.0521,-1.46443 -8.20208,-1.8529 -4.775232,-0.86281 -9.523862,-0.83409 -14.287502,0.10045 -1.91364,0.37542 -5.43057,2.468261 -7.25603,2.00601 -3.6742,-0.93038 -6.98549,-4.199089 -10.73564,-5.38618 -1.3968,-0.44215 -3.38667,-0.98229 -4.6888,-0.005 -1.25444,0.94139 -0.86705,2.91981 -0.60184,4.23088 0.52181,2.57954 1.28294,5.14266 2.00418,7.67292 0.28934,1.01507 0.95333,2.38208 0.61103,3.43958 -1.01914,3.14854 -4.76959,6.29281 -6.47188,9.26042 -4.78037,8.33362 -9.20696,18.43333 -10.12234,28.04583 -0.85686,8.997915 2.67491,19.014195 8.73144,25.663565 1.84,2.0201 4.39477,3.10156 6.281,5.03872 3.46952,3.56319 6.15531,12.8244698 12.72,7.9458598 0.79871,-0.59356 1.43289,-1.326 2.00418,-2.13585 0.80694,-1.1438898 1.43182,-2.4150198 1.96845,-3.7039598"
         id="path2-3"
         sodipodi:nodetypes="ccsscssssscssssssscsssssssssc" /><path
         style="fill:#ffffff;fill-opacity:1;stroke-width:0.264583"
         d="m -41.997193,-78.029191 -0.574289,1.519087 0.33346,1.222679 1.259729,0.889223 1.315307,-0.389036 0.592815,-1.037423 z"
         id="path3" /><path
         style="fill:#ffffff;fill-opacity:1;stroke-width:0.264583"
         d="m -19.488772,-75.620882 3.519835,-2.371256 0.314933,0.500186 0.314932,1.130052 -0.296407,1.259731 -1.093001,0.981848 -1.389409,0.240832 -1.148578,-0.907749 z"
         id="path4" /><path
         style="fill:#000000;fill-opacity:1;stroke:none"
         d="m -42.427842,-13.366853 c 8.88778,3.353029 17.773352,1.205119 26.722922,0 0.68392,5.0747388 6.1398296,9.9267488 10.8232196,5.5064388 1.79576,-1.69489 2.60681,-4.2160988 4.30395998,-6.0249898 1.78325002,-1.900669 4.44285002,-2.6857 6.21792002,-4.557329 3.53088,-3.722971 6.2639704,-9.945121 7.8870704,-14.767871 1.40447,-4.173139 1.07207,-8.143189 0.96442,-12.435415 -0.21792,-8.68889 -2.82501,-17.97274 -6.9949204,-25.664579 -1.44666,-2.66851 -3.12388,-5.28766 -5.00116,-7.67292 -0.92252,-1.17215 -2.57978002,-2.52677 -3.02984002,-3.96875 -0.39725,-1.27277 0.60142,-3.257611 0.92808,-4.497921 0.79812002,-3.03038 2.00308002,-7.57865 0.57796,-10.5719 -0.9276,-1.94827 -3.07196998,-1.69437 -4.77045998,-1.052409 -3.70947,1.40203 -6.9387396,3.89509 -10.5833396,5.387409 -1.98464,0.81264 -6.0521,-1.46443 -8.20208,-1.8529 -4.775232,-0.86281 -9.523862,-0.83409 -14.287502,0.10045 -1.91364,0.37542 -5.43057,2.46826 -7.25603,2.00601 -3.6742,-0.93038 -6.98549,-4.199089 -10.73564,-5.38618 -1.3968,-0.44215 -3.38667,-0.98229 -4.6888,-0.005 -1.25444,0.94139 -0.86705,2.91981 -0.60184,4.23088 0.52181,2.57954 1.28294,5.14266 2.00418,7.67292 0.28934,1.01507 0.95333,2.382081 0.61103,3.439581 -1.01914,3.14854 -4.76959,6.29281 -6.47188,9.26042 -4.78037,8.33362 -9.20697,18.433329 -10.12235,28.045829 -0.85686,8.997915 2.67492,19.014195 8.73145,25.663565 1.84,2.0201 4.39477,3.10156 6.281,5.03872 3.46952,3.56319 6.15531,12.8244698 12.72,7.9458598 0.79871,-0.59356 1.43289,-1.326 2.00418,-2.13585 0.80694,-1.1438898 1.43182,-2.4150198 1.96845,-3.7039598 m 40.7458416,-70.379164 c -4.12422,-2.905171 -7.38202,-6.726911 -12.1708396,-8.731251 v -0.52917 c 2.97195,-1.38757 5.7615496,-3.15431 8.7312496,-4.5559 1.10661,-0.52228 2.69729,-1.38954 3.96385,-1.12631 1.55753998,0.32371 1.85500998,2.50927 1.82289998,3.83013 -0.0875,3.60013 -0.92387,7.80526 -2.34715998,11.112501 m -43.3916716,-9.260421 v 0.52917 l -11.37709,8.202081 c -1.05263,-3.291961 -2.0037,-6.675191 -2.73525,-10.054161 -0.23713,-1.09529 -0.78847,-2.87979 0.22539,-3.74173 1.0681,-0.90806 2.94625,-0.20431 4.09736,0.17495 3.51577,1.15837 6.47365,3.3397 9.78959,4.88969 m 29.368752,1.05834 c 1.9345,-0.11573 3.98885,1.35064 5.55625,2.38206 4.2804096,2.81672 8.0688496,6.314961 11.2713296,10.317941 6.42626,8.03259 9.2387604,16.559459 11.2182504,26.458329 1.15221,5.76186 2.13663,11.342435 0.93932,17.197915 -0.98149,4.79997 -3.7799404,9.64056 -6.3434704,13.75833 -2.17519,3.49398 -5.58748,4.50659 -8.23801,7.43202 -1.87604,2.07061 -2.81953,5.4085598 -5.40784,6.7356398 -4.8996896,2.51217 -8.0241096,-2.8793098 -8.2020796,-7.0239098 -9.29392,2.97181 -18.952732,2.90044 -28.310422,0.26458 -0.58704,3.91658 -5.25974,9.5910798 -9.5003,6.4020598 -2.53806,-1.90869 -3.45524,-5.6643098 -5.62688,-7.9789398 -1.675,-1.78529 -4.00854,-2.8193 -5.77388,-4.51915 -3.65374,-3.51821 -6.30887,-8.65487 -7.74784,-13.48313 -3.07466,-10.31655 -0.12871,-18.517555 3.72499,-28.045835 4.62239,-11.428869 9.80895,-22.244999 21.21974,-28.61154 7.1854,-4.00902 15.4315,-5.54081 23.547922,-4.13064 2.15824,0.37497 6.45946,0.83894 7.67292,2.84427 m -28.310422,3.70416 0.79375,0.26459 2.64583,-2.21507 3.175,-0.95993 c -2.74622,-0.50982 -5.49746,0.0349 -6.61458,2.91041 m 22.489582,-2.38125 0.26459,0.79375 3.17398,-0.55713 2.91143,1.35088 c -1.43797,-2.74716 -3.8071,-2.56677 -6.35,-1.5875 m -19.842722,11.577571 c -3.00337,1.06839 -1.66589,6.26284 1.31046,5.15529 2.64449,-0.98407 1.61461,-6.19584 -1.31046,-5.15529 m 23.018742,0.26152 c -3.14369,1.17341 -1.5491,6.33517 1.58526,5.16141 3.12655,-1.17083 1.58574,-6.34502 -1.58526,-5.16141 m -23.284352,1.1255 c -0.277517,1.711531 0.932724,2.35444 2.11667,1.85208 -1.16869,2.29451 -3.69823,-0.14075 -2.11667,-1.85208 m 25.664582,0.26458 c 0.35492,2.18865 -1.63966,4.27368 -3.175,1.85208 2.21257,0.707024 2.523538,-0.62866 3.175,-1.85208 m -15.345832,4.34562 c -5.23632,0.69595 -16.11835,3.28649 -16.11835,10.206459 0,2.77959 2.3343,5.07259 4.47668,6.51945 4.75122,3.20873 11.48334,4.93638 17.19792,4.25293 5.257762,-0.62881 15.734482,-2.97541 16.1110016,-9.71404 0.15451,-2.76529 -2.1476896,-5.116809 -4.2047496,-6.634599 -4.72172,-3.4839 -11.615612,-5.40731 -17.462502,-4.6302 m 25.9291716,0.29235 c -7.4726696,1.71249 -4.9643096,12.487089 2.38125,10.792379 7.19276,-1.65945 4.5881,-12.389519 -2.38125,-10.792379 m -50.0062516,0.5261 c -8.25376,1.76093 -4.82067,13.019089 2.91041,11.367689 8.0113,-1.71125 4.40947,-12.929379 -2.91041,-11.367689 m 25.4,-0.0615 c 5.173162,-0.60872 11.472502,1.63716 15.610412,4.6198 1.77631,1.28037 3.84332,3.247089 3.87403,5.623409 0.0763,5.90186 -9.95926,8.46315 -14.45736,8.95194 -5.803722,0.63067 -11.917462,-0.48667 -16.933332,-3.61127 -2.09647,-1.30599 -4.70325,-3.38966 -4.66778,-6.13442 0.029,-2.240189 1.91621,-4.042879 3.60944,-5.236339 3.88945,-2.74143 8.3378,-3.66869 12.96459,-4.21312 m 26.4583316,0.18905 v 0.26458 h -1.32291 l 1.32291,-0.26458 m -1.85208,0.26458 v 0.26458 l -3.175,2.11667 3.175,-2.38125 m 2.64583,0 1.05834,0.52917 v 0.26458 l -1.32292,-0.52917 0.26458,-0.26458 m -50.8000016,0.26458 v 0.26459 h -1.32292 l 1.32292,-0.26459 m -2.11667,0.35278 c 0.20462,0 0.0424,0.13173 -0.0882,0.0882 l 0.0882,-0.0882 m 2.91042,0 c 0.20462,0 0.0424,0.13173 -0.0882,0.0882 l 0.0882,-0.0882 m -3.43958,0.17639 -0.26459,0.26458 0.26459,-0.26458 m 4.7625,0.52917 -0.79375,-0.26459 0.79375,0.26459 m 50.2708316,-0.52917 0.79374998,1.05833 -0.79374998,-1.05833 m -55.5625016,0.26458 v 0.26459 l -2.11667,2.11666 h -0.26458 l 2.38125,-2.38125 m 5.82083,0.26459 1.32292,1.5875 -1.32292,-1.5875 m 50.80001158,0.79375 0.26458,0.52916 -0.26458,-0.52916 m -8.46666998,0.52916 -0.26459,0.26459 0.26459,-0.26459 m 8.90763998,0.44098 -0.0882,0.17638 0.0882,-0.17638 m -49.65348158,0.0882 0.26459,0.79375 h -0.26459 v -0.79375 m 40.3930616,0.17639 -0.0882,0.17639 0.0882,-0.17639 m -50.2708316,0.52917 -0.0882,0.17638 0.0882,-0.17638 m 24.69444,11.465269 c 1.30019,-3.47075 1.10716,-7.88563 0,-11.377079 -3.02569,1.58291 -3.02568,9.794179 0,11.377079 M 0.69924958,-67.870948 v 1.05833 h -0.26459 l 0.26459,-1.05833 m -49.56528158,0.44097 -0.0882,0.17639 0.0882,-0.17639 m 39.7756916,-0.17639 v 1.05834 h -0.26458 l 0.26458,-1.05834 M -23.64242,-56.493869 c 3.16951,-1.65815 2.43405,-8.223899 1.05833,-10.847909 -3.148512,1.64717 -2.427282,8.236809 -1.05833,10.847909 m -35.718752,-10.583329 v 1.05833 h -0.26459 l 0.26459,-1.05833 m 10.84791,0.52917 v 1.05833 h -0.26458 l 0.26458,-1.05833 m 48.85973158,0.44097 -0.0882,0.17639 0.0882,-0.17639 m -35.10139158,0.0882 -0.52917,0.79375 0.52917,-0.79375 m 25.9291616,0 -0.26458,0.26459 0.26458,-0.26459 m -14.0229096,0.26459 0.26458,1.05833 h -0.26458 v -1.05833 m -36.336112,0.44097 -0.0882,0.17639 0.0882,-0.17639 m 50.6236116,-0.17639 -0.26459,0.26458 0.26459,-0.26458 m 8.73124998,0 -0.26458,0.26458 0.26458,-0.26458 m -23.37152958,0.44097 -0.0882,0.17639 0.0882,-0.17639 m -25.576392,0.0882 -0.26458,0.26458 0.26458,-0.26458 m 40.4812516,0 1.05834,1.322909 -1.05834,-1.322909 m 8.20208998,0 -1.32291998,1.322909 1.32291998,-1.322909 m -58.73751158,0.26458 0.26459,0.529169 -0.26459,-0.529169 m 23.45973,0.176389 -0.0882,0.17639 0.0882,-0.17639 m -13.67014,0.0882 -0.26459,0.26459 0.26459,-0.26459 m 25.664582,0.26459 v 0.79375 h -0.26458 l 0.26458,-0.79375 m -34.925002,0.26458 0.79375,1.05833 -0.79375,-1.05833 m 8.99583,0 -1.85208,1.5875 v -0.26458 l 1.85208,-1.32292 m 26.987502,0 v 2.64583 h -0.26458 l 0.26458,-2.64583 m -12.170832,0.26458 v 2.91042 h -0.26458 l 0.26458,-2.91042 m 27.7812516,0 0.52917,0.26459 v 0.26458 l -0.52917,-0.52917 m 5.02709,0 -0.79375,0.52917 v -0.26458 l 0.79375,-0.26459 m -33.8666716,0.52917 v 1.85208 h -0.26459 l 0.26459,-1.85208 m 29.8979216,0 -0.26459,0.26458 0.26459,-0.26458 m 2.91041,0 -0.26458,0.26458 0.26458,-0.26458 m -54.2395816,0.26458 1.05833,0.52917 v 0.26458 l -1.32292,-0.52916 0.26459,-0.26459 m 53.1812516,0 v 0.26459 h -1.05833 l 1.05833,-0.26459 m -19.8437496,0.26459 v 2.38125 h -0.26459 l 0.26459,-2.38125 m -27.781252,0.26458 -0.26459,0.26458 0.26459,-0.26458 m -3.96875,0.35278 c 0.20461,0 0.0424,0.13172 -0.0882,0.0882 l 0.0882,-0.0882 m 3.175,0 c 0.20462,0 0.0424,0.13172 -0.0882,0.0882 l 0.0882,-0.0882 m -1.05834,0.17639 v 0.26458 h -1.32291 l 1.32291,-0.26458 m 30.691672,1.32291 v 0.79375 h -0.26458 l 0.26458,-0.79375 m -12.788192,0.44098 -0.0882,0.17638 0.0882,-0.17638 m 0.61736,0.88194 v 0.79375 l -0.52917,-0.79375 h 0.52917 m 11.377082,0 0.26458,1.05833 h -0.26458 v -1.05833 m 0.44097,0.17639 -0.0882,0.17639 0.0882,-0.17639 m -30.338892,4.056941 c 1.27963,4.67855 3.80705,8.87369 4.49772,13.758335 0.24751,1.75047 0.35506,4.70514 -2.11667,4.85661 -3.5736,0.21899 -8.64142,-3.27405 -11.64146,-4.9689 -1.41991,-0.80216 -3.08392,-2.28081 -4.7625,-2.00438 v 0.52917 c 3.9559,1.84696 7.64396,4.2075 11.64166,6.00457 1.68189,0.75604 3.93762,1.83325 5.81696,1.23105 2.21034,-0.70826 2.2802,-3.46684 2.0448,-5.38354 -0.59854,-4.873645 -2.61862,-9.866225 -4.68676,-14.287496 l -0.79375,0.264581 m 47.8895916,0.26459 c -2.00194,4.27971 -3.97972,9.2884 -4.4528,14.022905 -0.1936996,1.93857 0.0428,4.66413 2.33715,5.18714 1.87632,0.42771 3.89842,-0.70837 5.55523,-1.44622 3.69115,-1.64383 7.28554,-3.76072 11.1125,-5.06383 v -0.52917 c -1.52307,-0.29419 -3.13743,0.73477 -4.49791,1.39131 -2.97806,1.43713 -8.01335,4.98305 -11.37689,4.78802 -2.32871,-0.13503 -2.34345,-2.89612 -2.11666,-4.59183 0.63843,-4.773605 2.98185,-8.918815 4.23313,-13.493745 z"
         id="path2"
         sodipodi:nodetypes="cccccssssssssssssscsssssssssccccsscccccsssccsssssssccsssssssccccccccccccsccsccccccccsssssccsccsccscsscsccccccccccccccccccccccccccccccccccccccccccccccccccccccccccccccccccccccccccccccccccccccccccccccccccccccccccccccccccccccccccccccccccccccccccccccccccccccccccccccccccccccccccccccccccccccccccccccccccccccccccccccccccsssccssccccscscccsscc" /><ellipse
         style="fill:#ff2068;fill-opacity:1;stroke-width:0.274815"
         id="path5"
         cx="-4.2793789"
         cy="-67.340004"
         rx="5.0574474"
         ry="4.9462948" /><ellipse
         style="fill:#ff2068;fill-opacity:1;stroke-width:0.297335"
         id="path5-0"
         cx="-61.173496"
         cy="-60.168755"
         rx="5.6496611"
         ry="5.1832242"
         transform="matrix(0.99384738,0.11075823,-0.11296569,0.99359889,0,0)" /></g></g></svg>
