<?xml version="1.0" encoding="UTF-8" standalone="no"?>
<!-- Created with Inkscape (http://www.inkscape.org/) -->

<svg
   width="6.6145668mm"
   height="6.6145754mm"
   viewBox="0 0 6.6145668 6.6145754"
   version="1.1"
   id="svg1"
   xml:space="preserve"
   xmlns="http://www.w3.org/2000/svg"
   xmlns:svg="http://www.w3.org/2000/svg"><defs
     id="defs1" /><g
     id="layer1"
     transform="translate(-137.97123,-112.42379)"><path
       id="path18"
       style="fill:#ffffff;fill-opacity:1;stroke-width:0.176251"
       d="m 141.27853,112.42378 a 3.3072912,3.3072912 0 0 0 -3.30729,3.30729 3.3072912,3.3072912 0 0 0 3.30729,3.30729 3.3072912,3.3072912 0 0 0 3.30729,-3.30729 3.3072912,3.3072912 0 0 0 -3.30729,-3.30729 z m 0,1.3177 a 0.72687719,0.72687719 0 0 1 0.72689,0.7269 0.72687719,0.72687719 0 0 1 -0.72689,0.7269 0.72687719,0.72687719 0 0 1 -0.7269,-0.7269 0.72687719,0.72687719 0 0 1 0.7269,-0.7269 z m 1.03561,1.90747 v 9.8e-4 a 0.72687719,0.72687719 0 0 1 0.69748,0.67165 h 0.002 v 0.0545 1.34481 h -0.69978 -0.13763 v -1.1494 c 0,-0.0537 -0.0315,-0.0971 -0.0705,-0.0971 -0.039,0 -0.0705,0.0433 -0.0705,0.0971 v 1.1494 h -1.51437 v -1.1494 c 0,-0.0537 -0.0315,-0.0971 -0.0705,-0.0971 -0.039,0 -0.0705,0.0433 -0.0705,0.0971 v 1.1494 h -0.13763 -0.69977 v -1.34481 -0.0545 h 0.004 a 0.72687719,0.72687719 0 0 1 0.69597,-0.67038 v -0.002 z" /></g></svg>
