<?xml version="1.0" encoding="UTF-8" standalone="no"?>
<!-- Created with Inkscape (http://www.inkscape.org/) -->

<svg
   width="5.291667mm"
   height="5.2916665mm"
   viewBox="0 0 5.291667 5.2916665"
   version="1.1"
   id="svg1"
   xml:space="preserve"
   xmlns="http://www.w3.org/2000/svg"
   xmlns:svg="http://www.w3.org/2000/svg"><defs
     id="defs1" /><g
     id="layer1"
     transform="matrix(0.17983497,0,0,0.15119041,-10.235875,-2.0456748)"><path
       style="fill:#f2f2f2;stroke-width:0.242039"
       d="m 57.423282,48.510104 c -0.0744,-0.01479 -0.218485,-0.113792 -0.320197,-0.220018 l -0.18493,-0.193137 5.32e-4,-3.533862 c 5.57e-4,-3.741417 0.01067,-3.908787 0.328455,-5.439702 0.697026,-3.357817 2.78807,-6.602963 5.594668,-8.682505 0.738373,-0.547098 1.875576,-1.217194 2.689656,-1.584885 0.70694,-0.319298 2.029593,-0.794756 2.210893,-0.794756 0.225028,0 0.111284,-0.137261 -0.371762,-0.448622 -0.6653,-0.428837 -1.722008,-1.48136 -2.158825,-2.150273 -1.798966,-2.754807 -1.709668,-6.22073 0.227766,-8.84053 1.0675,-1.443474 2.548529,-2.433791 4.350544,-2.909071 0.730532,-0.192677 2.406554,-0.244351 3.18339,-0.09815 3.20457,0.603109 5.641489,3.058172 6.235191,6.281615 0.156587,0.850171 0.09914,2.338786 -0.123055,3.188778 -0.365558,1.398417 -1.091646,2.633277 -2.140015,3.639527 -0.349272,0.335238 -0.856225,0.74964 -1.126565,0.920895 -0.270343,0.171252 -0.469468,0.330625 -0.442503,0.354158 0.02697,0.02353 0.193118,0.07998 0.369226,0.125427 0.176109,0.04545 0.666011,0.212004 1.088671,0.370119 4.331491,1.62037 7.734317,5.356656 8.963613,9.842004 0.473852,1.728944 0.543857,2.566733 0.545203,6.524799 9.68e-4,2.592352 -0.01375,3.095379 -0.095,3.266604 -0.202601,0.426947 1.044475,0.392556 -14.536974,0.400892 -7.783994,0.0042 -14.213587,-0.0045 -14.287984,-0.01931 z"
       id="path9" /></g></svg>
